# xmcd CD database file
#
# Track frame offsets:
#	150
#	12665
#	22250
#	35297
#	53180
#	69437
#	81435
#	95505
#	107925
#	119590
#
# Disc length: 1787 seconds
#
# Revision: 0
# Processed by: cddbd v1.5.1PL0 Copyright (c) Steve Scherf et al.
# Submitted via: CDex 1.51
#
DISCID=8c06f90a
DTITLE=Ike and Tina Turner - Ike and Tina Turner
DYEAR=1999
DGENRE=Duo/Rock
TTITLE0=Rock Me Baby
TTITLE1=Ain't Nobody's Business
TTITLE2=A Fool In Love
TTITLE3=I've Been Loving You Too Long
TTITLE4=Motherless Child
TTITLE5=Bold Soul Sister
TTITLE6=Baby What You Want Me To Do
TTITLE7=Reconsider Baby
TTITLE8=I Know You Don't Love Me No More
TTITLE9=Rockin' And Rollin'
EXTD=YEAR: 1999
EXTT0=
EXTT1=
EXTT2=
EXTT3=
EXTT4=
EXTT5=
EXTT6=
EXTT7=
EXTT8=
EXTT9=
PLAYORDER=
